<svg xmlns="http://www.w3.org/2000/svg" xmlns:xlink="http://www.w3.org/1999/xlink">
    <symbol id="appointments" viewBox="0 0 12 14">
        <path
            d="M2.8 0a.81.81 0 0 0-.8.82v1.668c0 .453.358.82.8.82a.81.81 0 0 0 .8-.82V.82A.81.81 0 0 0 2.8 0zm6.4 0a.81.81 0 0 0-.8.82v1.668c0 .453.358.82.8.82a.81.81 0 0 0 .8-.82V.82A.81.81 0 0 0 9.2 0z" />
        <path
            d="M10.8 1.668v.82c0 .905-.718 1.64-1.6 1.64-.882 0-1.6-.735-1.6-1.64v-.82H4.4v.82c0 .905-.718 1.64-1.6 1.64-.882 0-1.6-.735-1.6-1.64v-.82c-.662 0-1.2.552-1.2 1.23V4.95h12V2.9c0-.68-.538-1.231-1.2-1.231zM0 5.77v7C0 13.448.538 14 1.2 14h9.6c.662 0 1.2-.552 1.2-1.23v-7H0zm5.2 5.742H3.5a.4.4 0 0 1-.358-.227.419.419 0 0 1 .038-.43l1.44-1.968a.412.412 0 0 0 .08-.246c0-.227-.18-.41-.4-.41-.22 0-.4.183-.4.41 0 .226-.179.41-.4.41a.405.405 0 0 1-.4-.41c0-.679.538-1.23 1.2-1.23.662 0 1.2.551 1.2 1.23 0 .268-.083.524-.24.738L4.3 10.69h.9c.221 0 .4.184.4.41 0 .227-.179.41-.4.41zM7.6 9.05c.662 0 1.2.552 1.2 1.23 0 .679-.538 1.23-1.2 1.23h-.8a.405.405 0 0 1-.4-.41c0-.226.179-.41.4-.41h.8c.22 0 .4-.184.4-.41 0-.226-.18-.41-.4-.41h-.8a.405.405 0 0 1-.4-.41V7.82c0-.227.179-.41.4-.41h1.6c.221 0 .4.183.4.41 0 .226-.179.41-.4.41H7.2v.82h.4z" />
    </symbol>
    <symbol id="caret" viewBox="0 0 11 6">
        <path
            d="M10.796.198A.67.67 0 0 0 10.312 0H.688a.67.67 0 0 0-.484.198A.632.632 0 0 0 0 .667c0 .18.068.336.204.468l4.813 4.667A.672.672 0 0 0 5.5 6a.67.67 0 0 0 .483-.198l4.813-4.667A.632.632 0 0 0 11 .667a.632.632 0 0 0-.204-.47z" />
    </symbol>
    <symbol id="arrow-left" viewBox="0 0 6 10">
        <path
            d="M.163 5.39l4.545 4.45a.56.56 0 0 0 .395.16.56.56 0 0 0 .395-.16l.335-.327a.54.54 0 0 0 0-.774L2.016 5.002l3.82-3.74a.538.538 0 0 0 0-.775L5.503.16A.56.56 0 0 0 5.107 0a.56.56 0 0 0-.395.16L.163 4.614A.538.538 0 0 0 0 5.002a.54.54 0 0 0 .163.388z" />
    </symbol>
    <symbol id="arrow-dn" viewBox="0 0 11 6">
        <path
            d="M9.957.162l-4.51 4.51L.94.162a.55.55 0 1 0-.78.776l4.897 4.9a.549.549 0 0 0 .778 0l4.897-4.9A.55.55 0 1 0 9.955.16z" />
    </symbol>

    <symbol id="dashboard" viewBox="0 0 14 14">
        <path
            d="M12.98 5.25H5.687c-.563 0-1.021.458-1.021 1.02v6.71c0 .562.458 1.02 1.02 1.02h7.292c.563 0 1.021-.458 1.021-1.02V6.27c0-.562-.458-1.02-1.02-1.02zm0-5.25H1.02C.459 0 0 .458 0 1.02v1.46C0 3.041.458 3.5 1.02 3.5h11.96c.562 0 1.02-.458 1.02-1.02V1.02C14 .459 13.542 0 12.98 0zM1.75 8.75a1.75 1.75 0 1 0 0-3.5 1.75 1.75 0 0 0 0 3.5zm0 5.25a1.75 1.75 0 1 0 0-3.5 1.75 1.75 0 0 0 0 3.5z" />
    </symbol>
    <symbol id="arrow-right" viewBox="0 0 6 10">
        <path
            d="M5.837 4.61L1.292.16A.56.56 0 0 0 .897 0a.56.56 0 0 0-.395.16L.167.487a.54.54 0 0 0 0 .774l3.817 3.737L.163 8.739a.538.538 0 0 0 0 .774l.335.327a.56.56 0 0 0 .395.16.56.56 0 0 0 .395-.16l4.549-4.454A.538.538 0 0 0 6 4.998a.538.538 0 0 0-.163-.388z" />
    </symbol>
    <symbol id="filter" viewBox="0 0 12 12">
        <path
            d="M11.53 0H.47A.469.469 0 0 0 0 .469C0 1.774.56 3.02 1.535 3.888l2.053 1.824c.356.317.56.771.56 1.248v4.57c0 .374.418.598.729.39l2.765-1.843a.469.469 0 0 0 .21-.39V6.96c0-.477.203-.931.56-1.248l2.052-1.824A4.578 4.578 0 0 0 12 .468.469.469 0 0 0 11.531 0zM9.842 3.187L7.79 5.012a2.609 2.609 0 0 0-.875 1.948v2.476l-1.828 1.219V6.96c0-.744-.32-1.454-.875-1.948L2.158 3.187A3.641 3.641 0 0 1 .968.937h10.064a3.64 3.64 0 0 1-1.19 2.25z" />
    </symbol>
    <symbol id="leads" viewBox="0 0 14 14">
        <path
            d="M11.667 2.8a1.4 1.4 0 1 0 0-2.8 1.4 1.4 0 0 0 0 2.8zM2.8 6.767L3.967 5.6l-2.8-2.8L0 3.967v2.1L7.933 14h2.1l1.167-1.167-2.8-2.8L7.233 11.2 2.8 6.767zM7 5.6v.467h.603L6.368 7.302l.33.33 1.235-1.235V7H8.4V5.6H7z" />
        <path
            d="M5.433 8.235l.467-.467.33.33-.467.467-.33-.33zM11.667 2.8a2.333 2.333 0 0 0-2.334 2.333V6.3H14V5.133A2.333 2.333 0 0 0 11.667 2.8zm.233 2.1h-.467v-.467h.467V4.9zm0-.933h-.467V3.5h.467v.467z" />
    </symbol>
    <symbol id="cube" viewBox="0 0 18 20">
        <path
            d="M17.442 5a.909.909 0 0 0-.332-.333L9.236.122a.909.909 0 0 0-.91 0L.455 4.667A.909.909 0 0 0 .122 5l8.66 5 8.66-5z" />
        <path
            d="M8.782 20c.157 0 .314-.04.455-.122l7.872-4.545a.91.91 0 0 0 .455-.788v-9.09A.908.908 0 0 0 17.442 5l-8.66 5v10z" />
        <path
            d="M8.327 19.878a.913.913 0 0 0 .455.122V10L.122 5A.908.908 0 0 0 0 5.455v9.09a.91.91 0 0 0 .455.788l7.872 4.545z" />
    </symbol>
    <symbol id="arrow-l" viewBox="0 0 30 15">
        <path
            d="M29.656 6.436v-.001L23.531.341a1.172 1.172 0 0 0-1.654 1.661l4.112 4.092H1.172a1.172 1.172 0 1 0 0 2.343H25.99l-4.111 4.092a1.172 1.172 0 0 0 1.653 1.661l6.123-6.094h.001a1.173 1.173 0 0 0 0-1.66z" />
    </symbol>
    <symbol id="marketing" viewBox="0 0 15 14">
        <path
            d="M11.826 8.009A14.878 14.878 0 0 0 5.628 9.63l-2.41 1.391a1.331 1.331 0 0 1-1.816-.487L.178 8.414a1.332 1.332 0 0 1 .487-1.817L2.66 5.445a.242.242 0 0 1 .33.088L4.56 8.25a.24.24 0 0 0 .336.085A.248.248 0 0 0 4.973 8l-1.58-2.737a.241.241 0 0 1 .072-.319A14.875 14.875 0 0 0 7.577.65 1.012 1.012 0 0 1 9.31.683l3.353 5.809a1.011 1.011 0 0 1-.836 1.517zm.43-4.046a1.512 1.512 0 0 0-.965-1.667.242.242 0 0 0-.291.349l.808 1.4a.242.242 0 0 0 .448-.082zm-5.579 8.552l-1.147-1.99a.242.242 0 0 0-.33-.09l-1.474.852a.242.242 0 0 0-.09.33l1.15 1.99a.785.785 0 0 0 .682.393c.261 0 .361-.088.921-.412a.786.786 0 0 0 .288-1.073zm7.344-10.39a.242.242 0 1 0-.242-.418l-.625.361c-.214.124-.125.451.12.451.087 0 .07-.002.747-.393zM11.798.874l.153-.569a.242.242 0 1 0-.467-.125l-.153.57a.242.242 0 0 0 .467.124zm2.694 3.833a.242.242 0 0 0-.17-.296l-.57-.152a.242.242 0 0 0-.125.467c.623.167.588.16.632.16a.242.242 0 0 0 .233-.179z" />
    </symbol>
    <symbol id="msg" viewBox="0 0 12 10">
        <path
            d="M8.067 0H1.32C.592 0 0 .579 0 1.29v5.783c0 .274.317.428.54.272l1.88-1.311a.934.934 0 0 1 .536-.168H7.09c.727 0 1.319-.579 1.319-1.29V.334A.338.338 0 0 0 8.067 0zm-1.66 4.05h-3.95a.338.338 0 0 1-.341-.335c0-.185.153-.334.342-.334h3.949c.189 0 .342.15.342.334a.338.338 0 0 1-.342.334zm0-1.56h-3.95a.338.338 0 0 1-.341-.335c0-.184.153-.334.342-.334h3.949c.189 0 .342.15.342.334a.338.338 0 0 1-.342.334z" />
        <path
            d="M11.667 3.883v5.782c0 .272-.315.43-.54.272l-1.88-1.31a.934.934 0 0 0-.537-.169H4.577c-.727 0-1.32-.579-1.32-1.29v-.634H7.09c1.104 0 2.003-.878 2.003-1.959V2.592h1.254c.728 0 1.32.58 1.32 1.29z" />
    </symbol>
    <symbol id="notification" viewBox="0 0 13 16">
        <path
            d="M12.732 12.733c-.049-.03-.412-.279-.776-1.029-.668-1.377-.809-3.318-.809-4.703v-.018c-.007-1.831-1.133-3.41-2.744-4.118V1.782C8.403.8 7.583 0 6.576 0h-.152C5.417 0 4.597.8 4.597 1.782v1.083c-1.616.71-2.744 2.297-2.744 4.136 0 1.385-.14 3.326-.809 4.703-.364.75-.727.998-.776 1.029a.452.452 0 0 0-.257.518.487.487 0 0 0 .483.367h3.528C4.042 14.934 5.145 16 6.5 16c1.355 0 2.458-1.066 2.478-2.382h3.528c.227 0 .435-.15.483-.367a.452.452 0 0 0-.257-.518zM5.56 1.783c0-.466.388-.844.864-.844h.152c.476 0 .864.378.864.843v.779a4.762 4.762 0 0 0-1.88 0v-.779zM6.5 15.06c-.824 0-1.496-.644-1.515-1.443h3.03c-.02.799-.691 1.443-1.515 1.443zm1.938-2.383H1.591a4.89 4.89 0 0 0 .252-.43c.645-1.24.972-3.005.972-5.247 0-1.982 1.653-3.594 3.685-3.594 2.031 0 3.684 1.612 3.684 3.595v.018c.002 2.233.33 3.992.973 5.227.084.162.169.305.252.431H8.44z" />
    </symbol>
    <symbol id="phone" viewBox="0 0 10 10">
        <path
            d="M9.738 7.339L8.339 5.943c-.5-.498-1.348-.299-1.548.35-.15.448-.65.697-1.099.597-.999-.249-2.347-1.545-2.597-2.591-.15-.449.15-.947.6-1.097.649-.2.848-1.046.349-1.545L2.646.262c-.4-.35-1-.35-1.349 0l-.949.947c-.949.996.1 3.638 2.447 5.98C5.143 9.532 7.79 10.63 8.79 9.632l.949-.947c.35-.4.35-.997 0-1.346z" />
    </symbol>
    <symbol id="publisher" viewBox="0 0 12 14">
        <path
            d="M8 7.82h1.6v.82H8v-.82zm-5.6 0h3.2v4.102H2.4V7.82zM0 .41v1.258h12V.41a.405.405 0 0 0-.4-.41H.4C.179 0 0 .184 0 .41zm8 10.692h1.6v.82H8v-.82zM2.4 4.54h7.2v.82H2.4v-.82z" />
        <path
            d="M0 13.59c0 .226.179.41.4.41h11.2c.221 0 .4-.184.4-.41V2.488H0V13.59zm10.4-1.258c0 .227-.179.41-.4.41H7.6a.405.405 0 0 1-.4-.41v-1.64c0-.227.179-.41.4-.41H10c.221 0 .4.183.4.41v1.64zm0-3.281c0 .226-.179.41-.4.41H7.6a.405.405 0 0 1-.4-.41V7.41c0-.227.179-.411.4-.411H10c.221 0 .4.184.4.41v1.64zM1.6 4.129c0-.227.179-.41.4-.41h8c.221 0 .4.183.4.41v1.64c0 .227-.179.41-.4.41H2a.405.405 0 0 1-.4-.41V4.13zm0 3.281c0-.226.179-.41.4-.41h4c.221 0 .4.184.4.41v4.922c0 .227-.179.41-.4.41H2a.405.405 0 0 1-.4-.41V7.41z" />
    </symbol>
    <symbol id="reports" viewBox="0 0 11 14">
        <path d="M7.333 0v3.5H11L7.333 0z" />
        <path
            d="M7.333 4.375c-.505 0-.916-.393-.916-.875V0h-5.5C.412 0 0 .393 0 .875v12.25c0 .483.412.875.917.875h9.166c.506 0 .917-.392.917-.875v-8.75H7.333zM3.667 12.25H1.833V9.625h1.834v2.625zm2.75 0H4.583V7.875h1.834v4.375zm2.75 0H7.333V6.125h1.834v6.125z" />
    </symbol>

    <symbol id="search" viewBox="0 0 14 14">
        <path
            d="M6.165 0A6.172 6.172 0 0 0 0 6.165c0 3.4 2.766 6.166 6.165 6.166 3.4 0 6.166-2.766 6.166-6.166A6.173 6.173 0 0 0 6.165 0zm0 11.192a5.033 5.033 0 0 1-5.027-5.027 5.033 5.033 0 0 1 5.027-5.027 5.033 5.033 0 0 1 5.027 5.027 5.033 5.033 0 0 1-5.027 5.027z" />
        <path
            d="M13.833 13.028L10.57 9.766a.569.569 0 1 0-.804.804l3.262 3.263a.567.567 0 0 0 .805 0 .569.569 0 0 0 0-.805z" />
    </symbol>
    <symbol id="settings" viewBox="0 0 14 14">
        <path
            d="M13.67 5.406l-1.075-.234a5.863 5.863 0 0 0-.347-.835l.596-.927a.418.418 0 0 0-.056-.522l-1.676-1.676a.418.418 0 0 0-.522-.056l-.927.596a5.854 5.854 0 0 0-.835-.347L8.594.33A.418.418 0 0 0 8.185 0h-2.37a.418.418 0 0 0-.41.33l-.233 1.075c-.286.094-.566.21-.835.347l-.927-.596a.418.418 0 0 0-.522.056L1.212 2.888a.418.418 0 0 0-.056.522l.596.927c-.137.27-.253.549-.347.835L.33 5.406a.418.418 0 0 0-.33.409v2.37a.42.42 0 0 0 .33.41l1.075.233c.094.286.21.566.347.835l-.596.927a.418.418 0 0 0 .056.522l1.676 1.676a.42.42 0 0 0 .522.056l.927-.596c.27.137.549.253.835.347l.234 1.076a.418.418 0 0 0 .409.329h2.37a.418.418 0 0 0 .41-.33l.233-1.075c.286-.094.566-.21.835-.347l.927.596a.418.418 0 0 0 .522-.056l1.676-1.676a.418.418 0 0 0 .056-.522l-.596-.927c.137-.27.253-.549.347-.835l1.076-.234A.418.418 0 0 0 14 8.185v-2.37a.418.418 0 0 0-.33-.41zM9.51 7A2.513 2.513 0 0 1 7 9.51 2.513 2.513 0 0 1 4.49 7 2.513 2.513 0 0 1 7 4.49 2.513 2.513 0 0 1 9.51 7z" />
    </symbol>
    <symbol id="sort" viewBox="0 0 10 12">
        <path
            d="M4.837 1.897L2.893.147a.6.6 0 0 0-.786 0L.163 1.897a.465.465 0 0 0 0 .707.6.6 0 0 0 .785 0l.996-.897V11.5c0 .276.25.5.556.5.307 0 .556-.224.556-.5V1.707l.996.897c.108.097.25.146.393.146a.586.586 0 0 0 .392-.146.465.465 0 0 0 0-.707zm5 7.499a.6.6 0 0 0-.785 0l-.996.897V.5c0-.276-.25-.5-.556-.5-.307 0-.555.224-.555.5v9.793l-.997-.896a.6.6 0 0 0-.785 0 .465.465 0 0 0 0 .707l1.944 1.75A.59.59 0 0 0 7.5 12a.586.586 0 0 0 .393-.146l1.944-1.75a.465.465 0 0 0 0-.707z" />
    </symbol>
    <symbol id="linkedin" viewBox="0 0 20 20">
        <path
            d="M19.995 20H20v-7.336c0-3.588-.773-6.352-4.967-6.352-2.017 0-3.37 1.106-3.923 2.156h-.058V6.647H7.074v13.352h4.142v-6.611c0-1.741.33-3.425 2.486-3.425 2.124 0 2.155 1.987 2.155 3.536V20h4.138zM.33 6.647h4.147V20H.33V6.647zM2.402 0A2.402 2.402 0 0 0 0 2.402c0 1.325 1.076 2.424 2.402 2.424 1.325 0 2.401-1.098 2.401-2.424A2.403 2.403 0 0 0 2.402 0z" />
    </symbol>
    <symbol id="facebook" viewBox="0 0 10 20">
        <path
            d="M8.175 3.32h1.826V.14A23.576 23.576 0 0 0 7.34 0C4.708 0 2.905 1.656 2.905 4.7v2.8H0v3.555h2.905V20h3.562v-8.944h2.787L9.697 7.5H6.466V5.05c0-1.027.277-1.73 1.709-1.73z" />
    </symbol>
    <symbol id="team" viewBox="0 0 16 14">
        <path
            d="M13.69 7.558h-1.237c.126.357.195.74.195 1.142v4.824c0 .167-.028.327-.08.476h2.046c.764 0 1.386-.641 1.386-1.43V9.94c0-1.313-1.036-2.382-2.31-2.382zM3.352 8.7c0-.401.069-.785.195-1.142H2.31C1.036 7.558 0 8.628 0 9.941v2.63C0 13.358.622 14 1.386 14h2.046a1.45 1.45 0 0 1-.08-.476V8.7zm6.062-2.383H6.586c-1.274 0-2.31 1.069-2.31 2.383v4.824a.47.47 0 0 0 .462.476h6.524a.47.47 0 0 0 .462-.476V8.7c0-1.314-1.036-2.383-2.31-2.383zM8 0C6.468 0 5.222 1.285 5.222 2.865c0 1.072.574 2.008 1.42 2.5a2.695 2.695 0 0 0 2.716 0 2.883 2.883 0 0 0 1.42-2.5C10.778 1.285 9.532 0 8 0zM3.122 2.67c-1.145 0-2.077.962-2.077 2.143 0 1.182.932 2.143 2.077 2.143.291 0 .568-.062.82-.173a2.117 2.117 0 0 0 1.014-.963c.155-.3.244-.643.244-1.007 0-1.181-.932-2.142-2.078-2.142zm9.756 0c-1.146 0-2.078.962-2.078 2.143 0 .364.089.707.244 1.007.222.428.58.77 1.015.963.251.111.528.173.819.173 1.145 0 2.077-.961 2.077-2.143 0-1.181-.932-2.142-2.077-2.142z" />
    </symbol>
    <symbol id="tranctions" viewBox="0 0 14 14">
        <path
            d="M11.95 2.028h.93a.208.208 0 1 0 0-.416h-1.386C8.742-.672 4.626-.53 2.044 2.047c-.011.01-.035.03-.035.04V1.11a.208.208 0 0 0-.416 0v1.436c-2.255 2.746-2.125 6.839.45 9.408a.067.067 0 0 0 .006.008h-.97a.208.208 0 1 0 0 .415h1.425A7.045 7.045 0 0 0 6.997 14a6.967 6.967 0 0 0 4.933-2.034v.92a.208.208 0 0 0 .417 0v-1.37c2.324-2.745 2.202-6.881-.392-9.47-.004-.003 0 .016-.004-.018zm.112 9.207h-1.367a.208.208 0 1 0 0 .415h.988a.035.035 0 0 0-.02.01c-2.44 2.436-6.324 2.554-8.926.365v-1.32a.208.208 0 0 0-.416 0v.937c-2.428-2.43-2.54-6.291-.368-8.887h1.312a.208.208 0 1 0 0-.416h-.923a6.595 6.595 0 0 1 8.86-.401v1.353a.208.208 0 0 0 .416 0v-.977c.035.012.03.029.043.04a6.586 6.586 0 0 1 .401 8.881z" />
        <path
            d="M7.004 3.029a3.97 3.97 0 1 0-1.518 7.643 3.986 3.986 0 0 0 4.832-1.466 3.966 3.966 0 0 0-.497-5.015A3.977 3.977 0 0 0 7.004 3.03zm.696 2.98h.51a.208.208 0 1 1 0 .415H7.7a1.26 1.26 0 0 1-1.247 1.038h-.18l1.38 1.302a.208.208 0 1 1-.286.303l-1.761-1.66a.208.208 0 0 1 .143-.36h.704a.86.86 0 0 0 .822-.623H5.75a.208.208 0 1 1 0-.416h1.526a.85.85 0 0 0-.822-.657H5.75a.208.208 0 1 1 0-.416h2.46a.208.208 0 1 1 0 .416h-.82c.163.185.27.413.31.657z" />
    </symbol>
    <symbol id="video" viewBox="0 0 15 10">
        <path
            d="M13.858.289a.556.556 0 0 0-.197-.04.47.47 0 0 0-.356.15l-3.186 3.14V2.25c0-.62-.223-1.15-.668-1.59A2.206 2.206 0 0 0 7.842 0H2.277a2.21 2.21 0 0 0-1.61.66C.224 1.1 0 1.63 0 2.25v5.5c0 .62.223 1.15.668 1.59.445.44.982.66 1.609.66h5.565c.627 0 1.164-.22 1.609-.66.445-.44.668-.97.668-1.59V6.453l3.186 3.149a.473.473 0 0 0 .356.148.552.552 0 0 0 .197-.039.467.467 0 0 0 .309-.46V.75a.467.467 0 0 0-.309-.461z" />
    </symbol>
    <symbol id="view" viewBox="0 0 19 10">
        <path
            d="M18.197 4.63c-.164-.19-4.1-4.63-9.03-4.63S.3 4.44.137 4.63a.57.57 0 0 0 0 .74C.3 5.56 4.237 10 9.167 10s8.866-4.44 9.03-4.63a.57.57 0 0 0 0-.74zm-9.03 4.259c-2.073 0-3.76-1.745-3.76-3.889 0-2.144 1.687-3.889 3.76-3.889 2.073 0 3.76 1.745 3.76 3.889 0 2.144-1.687 3.889-3.76 3.889z" />
        <path
            d="M9.704 3.889c0-.559.268-1.05.676-1.353a2.58 2.58 0 0 0-1.213-.314C7.686 2.222 6.48 3.468 6.48 5s1.205 2.778 2.686 2.778c1.325 0 2.423-1.001 2.64-2.31-1.082.36-2.103-.486-2.103-1.579z" />
    </symbol>
    <symbol id="wp" viewBox="0 0 10 10">
        <path
            d="M5.001 0H5a5.004 5.004 0 0 0-5 5c0 1.094.352 2.107.952 2.93L.329 9.789l1.922-.614A4.955 4.955 0 0 0 5 10a5.005 5.005 0 0 0 5-5c0-2.757-2.242-5-4.999-5zm2.91 7.06c-.121.341-.6.624-.982.706-.26.056-.602.1-1.75-.376-1.47-.609-2.417-2.102-2.49-2.199-.07-.097-.594-.79-.594-1.508 0-.717.364-1.067.511-1.217.12-.123.32-.18.512-.18.061 0 .117.004.167.006.147.007.22.016.317.247.121.291.415 1.008.45 1.082.036.074.071.174.021.27-.047.1-.088.145-.162.23-.074.085-.143.15-.217.241-.068.08-.144.165-.059.312.085.143.379.623.811 1.008.558.497 1.01.655 1.173.723.12.05.264.038.352-.056.112-.12.25-.32.39-.517.1-.141.227-.159.36-.109.135.047.849.4.996.473.147.074.244.109.28.17.034.063.034.353-.086.695z" />
    </symbol>
    <symbol id="upload" viewBox="0 0 11 14">
        <path d="M3.143 10.443h4.714v-4.82H11L5.5 0 0 5.623h3.143v4.82zM11 12.393H0V14h11v-1.607z" />
    </symbol>
    <symbol id="tick-icon" viewBox="0 0 8 8">
        <path d="M3.49 8L0 5.071.992 3.7l2.144 1.799L6.673 0 8 .99 3.49 8z" />
    </symbol>
    <symbol id="plus" viewBox="0 0 14 14">
        <path fill="#fff"
            d="M12.75 5.75H8.5a.25.25 0 0 1-.25-.25V1.25a1.25 1.25 0 0 0-2.5 0V5.5a.25.25 0 0 1-.25.25H1.25a1.25 1.25 0 0 0 0 2.5H5.5a.25.25 0 0 1 .25.25v4.25a1.25 1.25 0 0 0 2.5 0V8.5a.25.25 0 0 1 .25-.25h4.25a1.25 1.25 0 0 0 0-2.5z" />
    </symbol>
    <symbol id="delete" viewBox="0 0 8 10">
       <path d="M7.23077 1.25H5.53846V0.9375C5.53846 0.419727 5.12519 0 4.61538 0H3.38462C2.87481 0 2.46154 0.419727 2.46154 0.9375V1.25H0.769231C0.344404 1.25 0 1.59979 0 2.03125V2.65625C0 2.82885 0.13775 2.96875 0.307692 2.96875H7.69231C7.86225 2.96875 8 2.82885 8 2.65625V2.03125C8 1.59979 7.6556 1.25 7.23077 1.25ZM3.07692 0.9375C3.07692 0.765234 3.215 0.625 3.38462 0.625H4.61538C4.785 0.625 4.92308 0.765234 4.92308 0.9375V1.25H3.07692V0.9375Z" fill="#EA4335"/>
       <path d="M0.583882 3.59375C0.528978 3.59375 0.485228 3.64035 0.487843 3.69605L0.74169 9.10703C0.765151 9.60781 1.17015 10 1.66361 10H6.33631C6.82977 10 7.23477 9.60781 7.25823 9.10703L7.51207 3.69605C7.51469 3.64035 7.47094 3.59375 7.41604 3.59375H0.583882ZM5.23073 4.375C5.23073 4.20234 5.36842 4.0625 5.53842 4.0625C5.70842 4.0625 5.84611 4.20234 5.84611 4.375V8.4375C5.84611 8.61016 5.70842 8.75 5.53842 8.75C5.36842 8.75 5.23073 8.61016 5.23073 8.4375V4.375ZM3.69227 4.375C3.69227 4.20234 3.82996 4.0625 3.99996 4.0625C4.16996 4.0625 4.30765 4.20234 4.30765 4.375V8.4375C4.30765 8.61016 4.16996 8.75 3.99996 8.75C3.82996 8.75 3.69227 8.61016 3.69227 8.4375V4.375ZM2.15381 4.375C2.15381 4.20234 2.2915 4.0625 2.4615 4.0625C2.6315 4.0625 2.76919 4.20234 2.76919 4.375V8.4375C2.76919 8.61016 2.6315 8.75 2.4615 8.75C2.2915 8.75 2.15381 8.61016 2.15381 8.4375V4.375Z" fill="#EA4335"/>
    </symbol>
    <symbol id="edit" viewBox="0 0 10 10">
      <path d="M8.04864 0.133152C7.96343 0.0479091 7.8478 0 7.72725 0C7.60667 0 7.49107 0.0479091 7.40586 0.133152L2.40589 5.13315C2.32058 5.21839 2.27271 5.334 2.27271 5.45455V7.27273C2.27271 7.52376 2.47625 7.72727 2.72725 7.72727H4.54543C4.66601 7.72727 4.78161 7.67936 4.86686 7.59412L9.86683 2.59412C10.0443 2.41661 10.0443 2.12882 9.86683 1.9513L8.04864 0.133152Z" fill="#2D3436"/>
      <path d="M9.54545 4.54549C9.29442 4.54549 9.09091 4.749 9.09091 5.00003V9.09091H0.909091V0.909091H5C5.25103 0.909091 5.45455 0.705576 5.45455 0.454545C5.45455 0.203515 5.25103 0 5 0H0.454545C0.203545 0 0 0.203515 0 0.454545V9.54545C0 9.79648 0.203545 10 0.454545 10H9.54545C9.79648 10 10 9.79648 10 9.54545V5.00003C10 4.74897 9.79648 4.54549 9.54545 4.54549Z" fill="#2D3436"/>
    </symbol>
    <symbol id="permission" viewBox="0 0 12 12">
      <path d="M11.125 8.34778H11V7.56518C11 6.84629 10.439 6.26086 9.74998 6.26086C9.06096 6.26086 8.50002 6.84629 8.50002 7.56518V8.34778H8.37495C7.89247 8.34778 7.49998 8.75733 7.49998 9.26089V11.0869C7.49998 11.5905 7.89247 12 8.37495 12H11.125C11.6075 12 12 11.5905 12 11.0869V9.26089C12 8.75733 11.6075 8.34778 11.125 8.34778ZM9.25002 7.56518C9.25002 7.27772 9.4745 7.04347 9.74998 7.04347C10.0255 7.04347 10.25 7.27772 10.25 7.56518V8.34778H9.25002V7.56518Z" fill="#8395A7"/>
      <path d="M6.75 9.26089C6.75 8.55652 7.16354 7.9518 7.75003 7.69567V7.56518C7.75003 7.24801 7.82346 6.95061 7.9455 6.68083C7.56747 6.4163 7.11346 6.26086 6.62503 6.26086H2.37497C1.06549 6.26086 0 7.37268 0 8.73909V10.5652C0 10.7812 0.167999 10.9565 0.375 10.9565H6.75V9.26089Z" fill="#8395A7"/>
      <path d="M7.00002 2.60872C7.00002 4.04945 5.8807 5.21735 4.49999 5.21735C3.11929 5.21735 1.99996 4.04945 1.99996 2.60872C1.99996 1.16799 3.11929 0 4.49999 0C5.8807 0 7.00002 1.16799 7.00002 2.60872Z" fill="#8395A7"/>
    </symbol>
    <symbol id="roles" viewBox="0 0 10 12">
      <path d="M6.67235 6.85585C6.48542 6.5636 6.31858 6.25926 6.17321 5.94458C5.96697 6.21012 5.64492 6.36181 5.30671 6.35304H4.67126C4.34034 6.36239 4.02419 6.21675 3.81835 5.96018C3.67476 6.26881 3.51087 6.56789 3.32729 6.85527C3.87095 7.01846 4.43272 7.11633 5.00002 7.14713C5.56731 7.11652 6.12869 7.01885 6.67235 6.85585Z" fill="#8395A7"/>
      <path d="M3.28103 3.42849C3.28103 3.52402 3.27591 3.61761 3.27158 3.7108C3.18727 4.07344 3.32831 4.45128 3.63067 4.67257C3.8503 4.86013 4.04471 5.07479 4.20939 5.31109C4.41168 5.58384 4.46762 5.64857 4.67307 5.64857H5.30674C5.51061 5.64857 5.56675 5.58384 5.77023 5.31109C5.9349 5.07479 6.12932 4.86032 6.34855 4.67257C6.65111 4.45148 6.79214 4.07383 6.70764 3.71119C6.70311 3.61897 6.69838 3.52558 6.69838 3.42888C6.70153 3.24151 6.72557 3.05513 6.76969 2.87283C6.88 2.34057 6.91013 1.79506 6.85931 1.25403C6.79431 0.0764269 5.15054 0 5.13399 0H4.82986C4.77668 0.00272956 3.18294 0.0836407 3.12148 1.25364C3.07066 1.79467 3.1008 2.34018 3.21091 2.87264C3.25484 3.05474 3.27828 3.24113 3.28103 3.42849Z" fill="#8395A7"/>
      <path d="M5 9.68692C5.73531 9.12698 6.32624 8.40268 6.72453 7.57349C6.16275 7.73375 5.58403 7.82772 5 7.85287C4.41576 7.82772 3.83665 7.73394 3.27487 7.57349C3.67355 8.40268 4.26468 9.12679 5 9.68692Z" fill="#8395A7"/>
      <path d="M7.52173 7.44214C7.3734 8.00013 6.87781 9.11203 5.22301 10.4228C5.21434 10.4298 5.20371 10.4312 5.19445 10.4372C5.07626 10.5133 4.9238 10.5133 4.80562 10.4372C4.79636 10.4312 4.78612 10.4296 4.77725 10.4228C3.12186 9.11183 2.62666 8.00013 2.47834 7.44214C1.77474 7.52519 1.11447 7.82213 0.588346 8.292C0.163467 8.8147 -0.0441467 9.47818 0.00785519 10.1471C0.00785519 11.6597 3.70491 12.0001 5.00003 12.0001C6.29515 12.0001 9.99221 11.6577 9.99221 10.1471C10.044 9.47818 9.83601 8.8147 9.41093 8.292C8.885 7.82232 8.22513 7.52539 7.52173 7.44214Z" fill="#8395A7"/>
    </symbol>
    <symbol id="users" viewBox="0 0 11 12">
      <path d="M5.5 0C3.68038 0 2.2 1.4194 2.2 3.16406C2.2 4.90873 3.68038 6.32812 5.5 6.32812C7.31962 6.32812 8.8 4.90873 8.8 3.16406C8.8 1.4194 7.31962 0 5.5 0Z" fill="#5E3EC5"/>
      <path d="M9.60584 8.3952C8.70237 7.51563 7.50466 7.03125 6.23333 7.03125H4.76667C3.49536 7.03125 2.29763 7.51563 1.39416 8.3952C0.495122 9.27045 0 10.4258 0 11.6484C0 11.8426 0.164169 12 0.366667 12H10.6333C10.8358 12 11 11.8426 11 11.6484C11 10.4258 10.5049 9.27045 9.60584 8.3952Z" fill="#5E3EC5"/>
    </symbol>
    <symbol id="burn" viewBox="0 0 16 20" >
       <path d="M12.6078 6.3988C12.1894 5.94376 11.5389 5.32958 11.2621 6.71638C11.168 7.1879 10.9481 7.55138 10.7597 7.84404C10.5566 6.82013 9.94548 5.76033 9.3697 5.04576C9.15424 4.77841 8.38975 3.71564 8.24289 1.93767C8.22096 1.67232 7.90452 1.54771 7.70659 1.72669C5.81509 3.43701 4.77686 5.78927 4.73831 8.43743C4.73831 8.43743 3.95068 7.77615 3.52278 6.54591C3.40756 6.21462 2.96167 6.15142 2.76821 6.44435C2.73107 6.5006 2.69664 6.55693 2.66558 6.61161C1.2062 9.18193 0.50418 12.3032 1.15318 15.2071C2.23831 20.0703 9.41633 21.4299 13.2164 18.3733C16.9344 15.3828 15.7525 9.81685 12.6078 6.3988Z" fill="#ED694A"/>
       <path d="M2.16345 15.5124C1.52198 12.5775 2.20098 9.42578 3.62609 6.81523C3.59005 6.72863 3.55538 6.63906 3.52299 6.54593C3.40777 6.21465 2.96187 6.15144 2.76841 6.44437C2.73128 6.50062 2.69688 6.55695 2.66582 6.61164C1.20645 9.18195 0.504424 12.3032 1.15342 15.2071C1.64838 17.4253 3.4111 18.9142 5.54258 19.588C3.87978 18.7857 2.57762 17.4103 2.16345 15.5124Z" fill="#D8553A"/>
       <path d="M5.75333 8.38867C5.83212 5.98527 6.70485 3.83019 8.26686 2.17465C8.25611 2.08348 8.24815 2.00195 8.24301 1.94008C8.22062 1.67246 7.91575 1.53824 7.71869 1.71566C5.89177 3.3609 4.77824 5.68937 4.73828 8.43734L5.08021 8.70183C5.24861 8.83211 5.47677 8.82644 5.6376 8.70711C5.73357 8.62609 5.74733 8.50383 5.75333 8.38867Z" fill="#D8553A"/>
       <path d="M11.4604 9.95383C11.1514 9.61773 10.6709 9.16406 10.4665 10.1884C10.397 10.5366 10.2345 10.8052 10.0954 11.0213C9.94541 10.265 9.49403 9.48223 9.06876 8.95445C8.90962 8.75699 8.34497 7.97203 8.23646 6.65871C8.22026 6.4627 7.98657 6.3707 7.84037 6.50289C6.44327 7.76613 5.67638 9.50363 5.64795 11.4596C5.64795 11.4596 5.06617 10.9711 4.75016 10.0625C4.66506 9.81777 4.33567 9.77109 4.19281 9.98746C4.16539 10.029 4.13994 10.0706 4.117 10.111C3.03905 12.0095 2.52052 14.3149 2.99987 16.4598C3.80138 20.0519 9.10319 21.0561 11.91 18.7984C14.6561 16.5896 13.7832 12.4785 11.4604 9.95383Z" fill="#F4A32C"/>
       <path d="M3.99955 16.7416C3.57514 14.6449 4.01472 12.3951 4.94671 10.5216C4.87569 10.3831 4.80839 10.23 4.75012 10.0625C4.66502 9.81781 4.33563 9.7711 4.19277 9.98746C4.16536 10.029 4.1399 10.0706 4.11696 10.1111C3.03905 12.0095 2.52056 14.315 2.99983 16.4598C3.37263 18.1305 4.71898 19.2409 6.33487 19.7242C5.1868 19.1507 4.28285 18.1431 3.99955 16.7416Z" fill="#E89528"/>
       <path d="M10.4132 13.1994C10.204 12.9719 9.87865 12.6647 9.7403 13.3582C9.69327 13.594 9.58327 13.7757 9.48907 13.922C9.3875 13.41 9.082 12.8801 8.79407 12.5229C8.68638 12.3892 8.30413 11.8578 8.23064 10.9688C8.21966 10.8361 8.0615 10.7738 7.96252 10.8633C7.01676 11.7185 6.49765 12.8947 6.47839 14.2187C6.47839 14.2187 6.08454 13.888 5.87065 13.2729C5.81304 13.1073 5.59009 13.0757 5.49338 13.2222C5.47479 13.2502 5.45762 13.2784 5.44205 13.3058C4.71238 14.5909 4.36135 16.1516 4.68583 17.6036C5.22839 20.0352 8.8174 20.715 10.7174 19.1866C11.3681 18.6633 11.7715 17.9258 11.8533 17.1101C11.9768 15.8745 11.4994 14.38 10.4132 13.1994Z" fill="#F4D44E"/>
       <path d="M9.44153 16.2112C9.32498 16.0844 9.14376 15.9133 9.06666 16.2996C9.04046 16.431 8.97921 16.5322 8.9267 16.6137C8.87011 16.3285 8.6999 16.0333 8.53951 15.8342C8.47951 15.7598 8.26652 15.4637 8.22558 14.9684C8.21946 14.8945 8.1313 14.8598 8.0762 14.9096C7.54932 15.3861 7.26006 16.0414 7.24935 16.779C7.24935 16.779 7.02993 16.5948 6.91075 16.2521C6.87863 16.1598 6.75443 16.1422 6.70059 16.2238C6.69024 16.2395 6.68067 16.2552 6.67204 16.2704C6.26552 16.9864 6.06994 17.8559 6.25073 18.6648C6.66243 20.5098 10.037 20.4539 10.244 18.3899C10.3127 17.7016 10.0467 16.8689 9.44153 16.2112Z" fill="#EAE9E8"/>
       <path d="M7.03425 19.031C6.85346 18.3074 7.04903 17.5296 7.45555 16.8891C7.46418 16.8755 7.47379 16.8615 7.4841 16.8475C7.53799 16.7745 7.66219 16.7902 7.69427 16.8727C7.81345 17.1793 8.03287 17.3441 8.03287 17.3441C8.04169 16.8019 8.23887 16.3097 8.60104 15.915C8.52006 15.8032 8.27228 15.5339 8.22558 14.9685C8.21946 14.8946 8.1313 14.8599 8.0762 14.9097C7.54932 15.3862 7.26006 16.0415 7.24935 16.7791C7.24935 16.7791 7.02993 16.5949 6.91075 16.2522C6.87867 16.1599 6.75444 16.1423 6.70059 16.224C6.69024 16.2396 6.68067 16.2553 6.67204 16.2706C6.26552 16.9865 6.06994 17.856 6.25073 18.665C6.41803 19.4148 7.10535 19.8654 7.86521 19.9741C7.45532 19.7736 7.14029 19.4561 7.03425 19.031Z" fill="#F7E7A1"/>
       <path d="M5.19981 2.65801C6.04788 1.97094 6.04599 0.685508 5.19981 0C4.35175 0.687031 4.35359 1.9725 5.19981 2.65801Z" fill="#D8553A"/>
       <path d="M15.3649 8.17238C16.213 7.48531 16.2111 6.19988 15.3649 5.51437C14.9773 5.82836 14.5187 7.48687 15.3649 8.17238Z" fill="#D8553A"/>
       <path d="M0.344276 8.69554C0.955471 8.20034 0.954138 7.27398 0.344276 6.77988C0.0649344 7.00617 -0.265585 8.20148 0.344276 8.69554Z" fill="#D8553A"/>
       <path d="M10.9296 4.57365C11.5408 4.07846 11.5394 3.15209 10.9296 2.65799C10.3184 3.15315 10.3197 4.07959 10.9296 4.57365Z" fill="#D8553A"/>
       <path d="M6.42778 11.1455C6.56813 9.49499 7.2009 8.02745 8.26336 6.90866C8.25262 6.82757 8.24356 6.74433 8.2365 6.65874C8.2203 6.46273 7.98661 6.37073 7.84041 6.50292C6.73332 7.50394 6.02278 8.803 5.76105 10.2723L5.76066 10.2722C5.74125 10.3812 5.71717 10.54 5.70195 10.6647C5.70199 10.6648 5.70203 10.6649 5.70211 10.665C5.6703 10.9253 5.65187 11.1903 5.64795 11.4596C5.67752 11.4654 6.34687 11.8081 6.42778 11.1455Z" fill="#E89528"/>
       <path d="M5.66386 17.9485C5.37542 16.592 5.62107 15.1455 6.19176 13.8922C6.0812 13.7378 5.96022 13.5304 5.87069 13.2729C5.81304 13.1073 5.59013 13.0757 5.49338 13.2221C5.47483 13.2502 5.45758 13.2784 5.44205 13.3057C4.71238 14.5909 4.36135 16.1515 4.68583 17.6035C4.93995 18.7423 5.86222 19.4968 6.96621 19.8203C6.3236 19.3953 5.83751 18.7664 5.66386 17.9485Z" fill="#E8C842"/>
       <path d="M7.52009 13.6259C7.61571 12.9453 7.8952 12.1953 8.33518 11.5683C8.28726 11.3913 8.24957 11.1913 8.23117 10.9688C8.22019 10.8361 8.06199 10.7738 7.96305 10.8633C7.37378 11.3962 6.95082 12.0539 6.71054 12.7941L6.70991 12.794C6.67211 12.9102 6.61866 13.1029 6.58626 13.255C6.58654 13.2549 6.58681 13.2549 6.58709 13.2548C6.52073 13.5651 6.48383 13.8871 6.479 14.2186C7.00812 14.2844 7.44582 14.1539 7.52009 13.6259Z" fill="#E8C842"/>
    </symbol>
    <symbol id="email" viewBox="0 0 13 10">
        <path d="M11.7057 0H11.3021H1.61458H1.21094C0.5425 0 0 0.56 0 1.25V1.66667V8.33333V8.75C0 9.44 0.5425 10 1.21094 10H1.61458H11.3021H11.7057C12.3742 10 12.9167 9.44 12.9167 8.75V8.33333V1.66667V1.25C12.9167 0.56 12.3742 0 11.7057 0ZM10.2801 0.833333L6.45833 3.94833L2.63661 0.833333H10.2801ZM11.3021 9.16667H1.61458V2.205L6.45833 6.05083L11.3021 2.20417V9.16667Z" fill="#2D3436"/>
    </symbol>
    <symbol id="cross" viewBox="0 0 329.26933 329">
        <path d="m194.800781 164.769531 128.210938-128.214843c8.34375-8.339844 8.34375-21.824219 0-30.164063-8.339844-8.339844-21.824219-8.339844-30.164063 0l-128.214844 128.214844-128.210937-128.214844c-8.34375-8.339844-21.824219-8.339844-30.164063 0-8.34375 8.339844-8.34375 21.824219 0 30.164063l128.210938 128.214843-128.210938 128.214844c-8.34375 8.339844-8.34375 21.824219 0 30.164063 4.15625 4.160156 9.621094 6.25 15.082032 6.25 5.460937 0 10.921875-2.089844 15.082031-6.25l128.210937-128.214844 128.214844 128.214844c4.160156 4.160156 9.621094 6.25 15.082032 6.25 5.460937 0 10.921874-2.089844 15.082031-6.25 8.34375-8.339844 8.34375-21.824219 0-30.164063zm0 0"/>
    </symbol>
    <symbol id="uplod" viewBox="0 0 25 25">
       <path d="M18.8948 10.2961C18.8898 10.2904 18.885 10.2847 18.8803 10.2788C18.7639 10.1355 18.6138 10.1073 18.5347 10.1032C18.4556 10.099 18.3033 10.1119 18.1729 10.2424L10.9597 17.4669C10.6907 17.7361 10.261 17.7561 9.96828 17.5131L6.93244 14.9921C6.75377 14.8438 6.49576 14.8454 6.31906 14.9958C6.31681 14.9977 6.31461 14.9996 6.31227 15.0015L0 20.2438V21.8053C0 23.5668 1.43306 24.9998 3.19459 24.9998H21.8054C23.5669 24.9998 25 23.5667 25 21.8053V17.3581L18.8948 10.2961Z" fill="#8395A7"/>
       <path d="M7.86961 4.54834C6.72381 4.54834 5.79163 5.48052 5.79163 6.62627C5.79163 7.77203 6.72385 8.70421 7.86961 8.70421C9.01541 8.70421 9.94754 7.77203 9.94754 6.62627C9.94754 5.48047 9.01541 4.54834 7.86961 4.54834Z" fill="#8395A7"/>
       <path d="M21.8055 0H3.19459C1.43316 0 0 1.43306 0 3.19459V18.3298L5.36837 13.8713C6.09132 13.2593 7.14391 13.2538 7.87311 13.8594L10.3922 15.9512L17.1308 9.20212C17.5204 8.81203 18.06 8.60466 18.61 8.63268C19.1564 8.66071 19.6679 8.91862 20.0153 9.34074L25 15.1066V3.19459C25 1.43306 23.5669 0 21.8055 0ZM7.86984 10.1768C5.91207 10.1768 4.31934 8.5841 4.31934 6.62638C4.31934 4.66866 5.91217 3.07593 7.86984 3.07593C9.82761 3.07593 11.4203 4.66871 11.4203 6.62638C11.4203 8.5841 9.82761 10.1768 7.86984 10.1768Z" fill="#8395A7"/>
    </symbol>
    <symbol id="general" viewBox="0 0 13 12">
       <path d="M12.5935 4.63647H9.07268C8.84843 4.63647 8.66644 4.81975 8.66644 5.04557C8.66644 5.27138 8.84843 5.45466 9.07268 5.45466H12.5935C12.8178 5.45466 12.9998 5.27138 12.9998 5.04557C12.9998 4.81975 12.8178 4.63647 12.5935 4.63647Z" fill="#5E3EC5"/>
       <path d="M12.5935 6.27271H9.07268C8.84843 6.27271 8.66644 6.45598 8.66644 6.6818C8.66644 6.90761 8.84843 7.09089 9.07268 7.09089H12.5935C12.8178 7.09089 12.9998 6.90761 12.9998 6.6818C12.9998 6.45598 12.8178 6.27271 12.5935 6.27271Z" fill="#5E3EC5"/>
       <path d="M12.5935 7.90918H9.07268C8.84843 7.90918 8.66644 8.09245 8.66644 8.31827C8.66644 8.54409 8.84843 8.72736 9.07268 8.72736H12.5935C12.8178 8.72736 12.9998 8.54409 12.9998 8.31827C12.9998 8.09245 12.8178 7.90918 12.5935 7.90918Z" fill="#5E3EC5"/>
       <path d="M12.5935 9.54541H9.07268C8.84843 9.54541 8.66644 9.72868 8.66644 9.9545C8.66644 10.1803 8.84843 10.3636 9.07268 10.3636H12.5935C12.8178 10.3636 12.9998 10.1803 12.9998 9.9545C12.9998 9.72868 12.8178 9.54541 12.5935 9.54541Z" fill="#5E3EC5"/>
       <path d="M12.5935 11.1816H9.07268C8.84843 11.1816 8.66644 11.3649 8.66644 11.5907C8.66644 11.8165 8.84843 11.9998 9.07268 11.9998H12.5935C12.8178 11.9998 12.9998 11.8165 12.9998 11.5907C12.9998 11.3649 12.8178 11.1816 12.5935 11.1816Z" fill="#5E3EC5"/>
       <path d="M6.63541 4.63647H0.947923C0.427924 4.63647 0 5.06739 0 5.59103V11.0456C0 11.5692 0.427924 12.0001 0.947923 12.0001H6.63541C7.15541 12.0001 7.58334 11.5692 7.58334 11.0456V5.59103C7.58331 5.06739 7.15541 4.63647 6.63541 4.63647ZM3.79167 6.54558C4.24124 6.54558 4.60417 6.91104 4.60417 7.36376C4.60417 7.81648 4.24124 8.18194 3.79167 8.18194C3.34209 8.18194 2.97917 7.81648 2.97917 7.36376C2.97917 6.91104 3.34207 6.54558 3.79167 6.54558ZM5.41666 9.95465C5.41666 10.1783 5.23249 10.3637 5.01042 10.3637H2.57292C2.35085 10.3637 2.16667 10.1783 2.16667 9.95465V9.75283C2.16667 9.18556 2.67585 8.72738 3.30417 8.72738H4.27917C4.90749 8.72738 5.41666 9.18556 5.41666 9.75283V9.95465Z" fill="#5E3EC5"/>
       <path d="M12.0521 0H0.947923C0.425212 0 0 0.428186 0 0.954527V2.31817C0 2.84454 0.425212 3.27272 0.947923 3.27272H12.0521C12.5748 3.27272 13 2.84454 13 2.31817V0.954527C13 0.428186 12.5748 0 12.0521 0Z" fill="#5E3EC5"/>
    </symbol>
    <symbol id="bank" viewBox="0 0 12 12">
       <path d="M9.29121 6.28931H10.6974V9.65625H9.29121V6.28931Z" fill="#8395A7"/>
       <path d="M6.6283 6.28931H8.03455V9.65625H6.6283V6.28931Z" fill="#8395A7"/>
       <path d="M3.9654 6.28931H5.37165V9.65625H3.9654V6.28931Z" fill="#8395A7"/>
       <path d="M1.30259 6.28931H2.70875V9.65625H1.30259V6.28931Z" fill="#8395A7"/>
       <path d="M11.1662 5.23462V4.88306H0.833839V5.23462C0.833839 5.4288 0.991219 5.58618 1.1854 5.58618H10.8146C11.0087 5.58618 11.1662 5.4288 11.1662 5.23462Z" fill="#8395A7"/>
       <path d="M11.6482 10.3594H0.351906C0.157722 10.3594 0.000343323 10.5168 0.000343323 10.7109V11.6484C0.000343323 11.8426 0.157722 12 0.351906 12H11.6482C11.8424 12 11.9998 11.8426 11.9998 11.6484V10.7109C11.9998 10.5168 11.8424 10.3594 11.6482 10.3594Z" fill="#8395A7"/>
       <path d="M0.351531 4.17993H11.6484C11.8057 4.17993 11.9438 4.07547 11.9867 3.92413C12.0294 3.7728 11.9666 3.61139 11.8327 3.52899L6.18426 0.0521851C6.07129 -0.017395 5.92874 -0.017395 5.81567 0.0521851L0.167235 3.52899C0.0332938 3.61148 -0.0295114 3.7728 0.0133353 3.92413C0.056182 4.07547 0.194335 4.17993 0.351531 4.17993ZM5.76102 2.06781H6.23901C6.4332 2.06781 6.59058 2.22519 6.59058 2.41937C6.59058 2.61356 6.4332 2.77094 6.23901 2.77094H5.76102C5.56683 2.77094 5.40945 2.61356 5.40945 2.41937C5.40945 2.22519 5.56683 2.06781 5.76102 2.06781Z" fill="#8395A7"/>
    </symbol>
    <symbol id="address" viewBox="0 0 10 12">
       <path d="M4.66667 0C2.09345 0 0 2.09345 0 4.66667C0 5.91667 0.75731 7.52191 2.25088 9.43758C2.93516 10.313 3.67619 11.1425 4.46919 11.9208C4.52236 11.9716 4.5931 12 4.66667 12C4.74024 12 4.81098 11.9716 4.86415 11.9208C5.65715 11.1425 6.39818 10.313 7.08246 9.43758C8.57603 7.52191 9.33334 5.91667 9.33334 4.66667C9.33334 2.09345 7.23989 0 4.66667 0ZM4.66667 8C2.82857 8 1.33333 6.50477 1.33333 4.66667C1.33333 2.82857 2.82857 1.33333 4.66667 1.33333C6.50477 1.33333 8 2.82857 8 4.66667C8 6.50477 6.50477 8 4.66667 8Z" fill="#8395A7"/>
       <path d="M6.95409 4.26471L4.85885 2.35995C4.80626 2.31214 4.73773 2.28564 4.66666 2.28564C4.59558 2.28564 4.52706 2.31214 4.47447 2.35995L2.37923 4.26471C2.33042 4.3091 2.29846 4.36901 2.28878 4.43427C2.27911 4.49953 2.2923 4.56614 2.32613 4.62278C2.35283 4.66591 2.39024 4.70138 2.43472 4.72575C2.4792 4.75012 2.52923 4.76255 2.57994 4.76183H2.85713V6.57135C2.85713 6.64713 2.88724 6.7198 2.94082 6.77338C2.9944 6.82697 3.06707 6.85707 3.14285 6.85707H3.80952C3.88529 6.85707 3.95796 6.82697 4.01155 6.77338C4.06513 6.7198 4.09523 6.64713 4.09523 6.57135V5.52373C4.09523 5.44796 4.12533 5.37528 4.17891 5.3217C4.2325 5.26812 4.30517 5.23802 4.38094 5.23802H4.95237C5.02815 5.23802 5.10082 5.26812 5.1544 5.3217C5.20799 5.37528 5.23809 5.44796 5.23809 5.52373V6.57135C5.23809 6.64713 5.26819 6.7198 5.32177 6.77338C5.37535 6.82697 5.44803 6.85707 5.5238 6.85707H6.19047C6.26625 6.85707 6.33892 6.82697 6.3925 6.77338C6.44608 6.7198 6.47618 6.64713 6.47618 6.57135V4.76183H6.75338C6.80409 4.76255 6.85412 4.75012 6.8986 4.72575C6.94308 4.70138 6.98049 4.66591 7.00718 4.62278C7.04102 4.56614 7.05421 4.49953 7.04454 4.43427C7.03486 4.36901 7.0029 4.3091 6.95409 4.26471Z" fill="#8395A7"/>
    </symbol>
    <symbol id="social" viewBox="0 0 12 12">
       <path d="M8.32159 6.375H3.67774C3.61175 6.375 3.55844 6.42919 3.56013 6.49493C3.57417 7.03741 3.61105 7.55564 3.66714 8.04565C3.6752 8.11615 3.74353 8.16377 3.81253 8.14627C4.5225 7.96601 5.25416 7.875 5.99967 7.875C6.74518 7.875 7.47684 7.96601 8.18681 8.14627C8.25579 8.16377 8.32413 8.11615 8.3322 8.04565C8.38829 7.55562 8.42517 7.03739 8.43921 6.49493C8.4409 6.42919 8.38759 6.375 8.32159 6.375Z" fill="#8395A7"/>
       <path d="M8.3322 3.95435C8.32413 3.88385 8.25581 3.83623 8.18681 3.85374C7.47684 4.03402 6.74518 4.12503 5.99967 4.12503C5.25416 4.12503 4.5225 4.03402 3.81253 3.85376C3.74355 3.83625 3.6752 3.88388 3.66714 3.95438C3.61105 4.44441 3.57417 4.96264 3.56013 5.5051C3.55844 5.57086 3.61173 5.62503 3.67774 5.62503H8.32157C8.38756 5.62503 8.44088 5.57084 8.43919 5.5051C8.42517 4.96261 8.38827 4.44439 8.3322 3.95435Z" fill="#8395A7"/>
       <path d="M8.18718 2.96531C7.97646 1.8034 7.65348 0.8505 7.28071 0.177094C7.26411 0.147094 7.23499 0.12593 7.20129 0.119156C6.81006 0.0405938 6.4082 0 6.00002 0C5.59183 0 5.18997 0.0405938 4.79874 0.11918C4.76504 0.125953 4.73593 0.147117 4.71932 0.177117C4.34656 0.8505 4.02358 1.8034 3.81285 2.96534C3.80206 3.02482 3.83877 3.08309 3.89733 3.09881C4.56808 3.27886 5.27299 3.375 6.00002 3.375C6.72704 3.375 7.43196 3.27886 8.1027 3.09879C8.16126 3.08309 8.19798 3.0248 8.18718 2.96531Z" fill="#8395A7"/>
       <path d="M8.5023 0.53994C8.40648 0.496276 8.30665 0.59162 8.34454 0.689589C8.34519 0.691323 8.34588 0.693057 8.34654 0.694792C8.57542 1.28785 8.76135 1.96114 8.90049 2.68928C8.91439 2.76205 8.99214 2.80351 9.06091 2.77539C9.5238 2.58608 9.96526 2.3551 10.3807 2.08735C10.4422 2.04772 10.4533 1.96224 10.4034 1.90881C10.3556 1.85764 10.3068 1.80716 10.257 1.75747C9.74073 1.24295 9.14705 0.833706 8.5023 0.53994Z" fill="#8395A7"/>
       <path d="M9.30944 5.62506H11.8819C11.9509 5.62506 12.0049 5.5662 11.9992 5.49772C11.9161 4.49181 11.5839 3.53675 11.0324 2.70404C10.9963 2.64955 10.923 2.63481 10.8683 2.67078C10.419 2.96663 9.94263 3.22128 9.44182 3.43236C9.3391 3.47567 9.23576 3.5169 9.13185 3.55616C9.08086 3.57542 9.0497 3.62654 9.0565 3.68047C9.13053 4.26873 9.1764 4.88237 9.19206 5.51052C9.19363 5.57417 9.24556 5.62506 9.30944 5.62506Z" fill="#8395A7"/>
       <path d="M3.81285 9.03469C4.02358 10.1966 4.34656 11.1495 4.71932 11.8229C4.73593 11.8529 4.76504 11.8741 4.79874 11.8808C5.18997 11.9594 5.59183 12 6.00002 12C6.4082 12 6.81006 11.9594 7.20129 11.8808C7.23499 11.874 7.26411 11.8529 7.28071 11.8229C7.65348 11.1495 7.97646 10.1966 8.18718 9.03466C8.19798 8.97518 8.16126 8.91691 8.1027 8.90119C7.43196 8.72114 6.72704 8.625 6.00002 8.625C5.27299 8.625 4.56808 8.72114 3.89733 8.90121C3.83877 8.91691 3.80206 8.9752 3.81285 9.03469Z" fill="#8395A7"/>
       <path d="M2.55782 8.56767C2.66055 8.52436 2.76389 8.48313 2.8678 8.44388C2.91878 8.42461 2.94995 8.37349 2.94315 8.31956C2.86911 7.7313 2.82325 7.11766 2.80759 6.48952C2.80599 6.42588 2.75408 6.375 2.69021 6.375H0.117718C0.0487624 6.375 -0.00525936 6.43385 0.000408579 6.50234C0.0835461 7.50825 0.415744 8.4633 0.967297 9.29602C1.00337 9.35048 1.07666 9.36525 1.13131 9.32927C1.58068 9.0334 2.05702 8.77875 2.55782 8.56767Z" fill="#8395A7"/>
       <path d="M10.3807 9.91272C9.96526 9.64497 9.5238 9.41397 9.06091 9.22469C8.99214 9.19657 8.91439 9.23803 8.90049 9.3108C8.76135 10.0389 8.57544 10.7122 8.34653 11.3053C8.34588 11.307 8.34519 11.3088 8.34454 11.3105C8.30665 11.4085 8.40648 11.5038 8.5023 11.4601C9.14705 11.1664 9.74073 10.7571 10.257 10.2426C10.3069 10.1929 10.3556 10.1424 10.4034 10.0913C10.4533 10.0378 10.4422 9.95236 10.3807 9.91272Z" fill="#8395A7"/>
       <path d="M9.19206 6.48954C9.1764 7.11769 9.13051 7.73135 9.0565 8.31959C9.0497 8.37352 9.08086 8.42463 9.13185 8.4439C9.23576 8.48316 9.3391 8.52438 9.44182 8.5677C9.94263 8.7788 10.419 9.03345 10.8683 9.32927C10.923 9.36525 10.9962 9.35048 11.0324 9.29602C11.5839 8.46333 11.9161 7.50827 11.9992 6.50234C12.0049 6.43385 11.9509 6.375 11.8819 6.375H9.30944C9.24556 6.37502 9.19363 6.42591 9.19206 6.48954Z" fill="#8395A7"/>
       <path d="M1.61901 2.08711C2.03447 2.35486 2.47593 2.58586 2.93882 2.77514C3.00759 2.80327 3.08534 2.76181 3.09924 2.68903C3.23837 1.9609 3.42429 1.28761 3.65319 0.694548C3.65385 0.692813 3.65453 0.691079 3.65519 0.689345C3.69308 0.591376 3.59324 0.496032 3.49743 0.539696C2.85269 0.833485 2.25902 1.24273 1.74272 1.75723C1.69286 1.80691 1.64411 1.8574 1.59632 1.90856C1.54644 1.962 1.55751 2.04748 1.61901 2.08711Z" fill="#8395A7"/>
       <path d="M2.80507 5.62505C2.8178 4.95696 2.86464 4.30442 2.94315 3.68046C2.94995 3.62653 2.91878 3.57542 2.8678 3.55615C2.76389 3.51689 2.66055 3.47567 2.55782 3.43235C2.05702 3.22125 1.58068 2.9666 1.13131 2.67078C1.07666 2.6348 1.0034 2.64957 0.967297 2.70403C0.415744 3.53675 0.0835461 4.4918 0.000408579 5.49771C-0.00525936 5.5662 0.0487624 5.62505 0.117718 5.62505H2.80507Z" fill="#8395A7"/>
       <path d="M3.49743 11.4601C3.59325 11.5038 3.69308 11.4085 3.65519 11.3105C3.65453 11.3088 3.65385 11.307 3.65319 11.3053C3.42431 10.7122 3.23838 10.0389 3.09924 9.3108C3.08534 9.23803 3.00759 9.19657 2.93882 9.22469C2.47593 9.414 2.03447 9.64497 1.61902 9.91272C1.55749 9.95236 1.54644 10.0378 1.59634 10.0913C1.64413 10.1424 1.69289 10.1929 1.74275 10.2426C2.259 10.7571 2.85267 11.1664 3.49743 11.4601Z" fill="#8395A7"/>
    </symbol>
    <symbol id="status" viewBox="0 0 12 12">
       <path d="M7.39727 4.21875C7.07606 4.64306 6.57197 4.92188 6 4.92188C5.42803 4.92188 4.92394 4.64306 4.60273 4.21875C4.37965 4.51345 4.24219 4.87622 4.24219 5.27344V5.97656C4.24219 6.17088 4.39943 6.32812 4.59375 6.32812H7.40625C7.60057 6.32812 7.75781 6.17088 7.75781 5.97656V5.27344C7.75781 4.87622 7.62035 4.51345 7.39727 4.21875Z" fill="#8395A7"/>
       <path d="M6 2.10938C5.41842 2.10938 4.94531 2.58248 4.94531 3.16406C4.94531 3.74564 5.41842 4.21875 6 4.21875C6.58158 4.21875 7.05469 3.74564 7.05469 3.16406C7.05469 2.58248 6.58158 2.10938 6 2.10938Z" fill="#8395A7"/>
       <path d="M11.6395 2.10938C11.3183 2.53369 10.8142 2.8125 10.2422 2.8125C9.67022 2.8125 9.16612 2.53369 8.84491 2.10938C8.62184 2.40408 8.48438 2.76684 8.48438 3.16406V3.86719C8.48438 4.06151 8.64162 4.21875 8.83594 4.21875H11.6484C11.8428 4.21875 12 4.06151 12 3.86719V3.16406C12 2.76684 11.8625 2.40408 11.6395 2.10938Z" fill="#8395A7"/>
       <path d="M10.2422 0C9.66061 0 9.1875 0.473109 9.1875 1.05469C9.1875 1.63627 9.66061 2.10938 10.2422 2.10938C10.8238 2.10938 11.2969 1.63627 11.2969 1.05469C11.2969 0.473109 10.8238 0 10.2422 0Z" fill="#8395A7"/>
       <path d="M3.15509 6.32812C2.83388 6.75244 2.32978 7.03125 1.75781 7.03125C1.18584 7.03125 0.68175 6.75244 0.360539 6.32812C0.137461 6.62283 0 6.98559 0 7.38281V8.08594C0 8.28026 0.157242 8.4375 0.351562 8.4375H3.16406C3.35838 8.4375 3.51562 8.28026 3.51562 8.08594V7.38281C3.51562 6.98559 3.37816 6.62283 3.15509 6.32812Z" fill="#8395A7"/>
       <path d="M1.75781 4.21875C1.17623 4.21875 0.703125 4.69186 0.703125 5.27344C0.703125 5.85502 1.17623 6.32812 1.75781 6.32812C2.33939 6.32812 2.8125 5.85502 2.8125 5.27344C2.8125 4.69186 2.33939 4.21875 1.75781 4.21875Z" fill="#8395A7"/>
       <path d="M11.6484 4.92188H8.83594C8.64162 4.92188 8.48438 5.07912 8.48438 5.27344V11.2969H7.75781V7.38281C7.75781 7.18849 7.60057 7.03125 7.40625 7.03125H4.59375C4.39943 7.03125 4.24219 7.18849 4.24219 7.38281V11.2969H3.51562V9.49219C3.51562 9.29787 3.35838 9.14062 3.16406 9.14062H0.351562C0.157242 9.14062 0 9.29787 0 9.49219V11.6484C0 11.8428 0.157242 12 0.351562 12C1.33887 12 1.87095 12 2.14031 12C2.32385 12 2.38547 12 2.38582 12C3.03647 12 5.22049 12 11.6484 12C11.8428 12 12 11.8428 12 11.6484V5.27344C12 5.07912 11.8428 4.92188 11.6484 4.92188Z" fill="#8395A7"/>
    </symbol>
</svg>