<svg xmlns="http://www.w3.org/2000/svg" xmlns:xlink="http://www.w3.org/1999/xlink">
    <symbol id="appointments" viewBox="0 0 12 14">
        <path
            d="M2.8 0a.81.81 0 0 0-.8.82v1.668c0 .453.358.82.8.82a.81.81 0 0 0 .8-.82V.82A.81.81 0 0 0 2.8 0zm6.4 0a.81.81 0 0 0-.8.82v1.668c0 .453.358.82.8.82a.81.81 0 0 0 .8-.82V.82A.81.81 0 0 0 9.2 0z" />
        <path
            d="M10.8 1.668v.82c0 .905-.718 1.64-1.6 1.64-.882 0-1.6-.735-1.6-1.64v-.82H4.4v.82c0 .905-.718 1.64-1.6 1.64-.882 0-1.6-.735-1.6-1.64v-.82c-.662 0-1.2.552-1.2 1.23V4.95h12V2.9c0-.68-.538-1.231-1.2-1.231zM0 5.77v7C0 13.448.538 14 1.2 14h9.6c.662 0 1.2-.552 1.2-1.23v-7H0zm5.2 5.742H3.5a.4.4 0 0 1-.358-.227.419.419 0 0 1 .038-.43l1.44-1.968a.412.412 0 0 0 .08-.246c0-.227-.18-.41-.4-.41-.22 0-.4.183-.4.41 0 .226-.179.41-.4.41a.405.405 0 0 1-.4-.41c0-.679.538-1.23 1.2-1.23.662 0 1.2.551 1.2 1.23 0 .268-.083.524-.24.738L4.3 10.69h.9c.221 0 .4.184.4.41 0 .227-.179.41-.4.41zM7.6 9.05c.662 0 1.2.552 1.2 1.23 0 .679-.538 1.23-1.2 1.23h-.8a.405.405 0 0 1-.4-.41c0-.226.179-.41.4-.41h.8c.22 0 .4-.184.4-.41 0-.226-.18-.41-.4-.41h-.8a.405.405 0 0 1-.4-.41V7.82c0-.227.179-.41.4-.41h1.6c.221 0 .4.183.4.41 0 .226-.179.41-.4.41H7.2v.82h.4z" />
    </symbol>
    <symbol id="caret" viewBox="0 0 11 6">
        <path
            d="M10.796.198A.67.67 0 0 0 10.312 0H.688a.67.67 0 0 0-.484.198A.632.632 0 0 0 0 .667c0 .18.068.336.204.468l4.813 4.667A.672.672 0 0 0 5.5 6a.67.67 0 0 0 .483-.198l4.813-4.667A.632.632 0 0 0 11 .667a.632.632 0 0 0-.204-.47z" />
    </symbol>
    <symbol id="arrow-left" viewBox="0 0 6 10">
        <path
            d="M.163 5.39l4.545 4.45a.56.56 0 0 0 .395.16.56.56 0 0 0 .395-.16l.335-.327a.54.54 0 0 0 0-.774L2.016 5.002l3.82-3.74a.538.538 0 0 0 0-.775L5.503.16A.56.56 0 0 0 5.107 0a.56.56 0 0 0-.395.16L.163 4.614A.538.538 0 0 0 0 5.002a.54.54 0 0 0 .163.388z" />
    </symbol>
    <symbol id="arrow-dn" viewBox="0 0 11 6">
        <path
            d="M9.957.162l-4.51 4.51L.94.162a.55.55 0 1 0-.78.776l4.897 4.9a.549.549 0 0 0 .778 0l4.897-4.9A.55.55 0 1 0 9.955.16z" />
    </symbol>

    <symbol id="dashboard" viewBox="0 0 14 14">
        <path
            d="M12.98 5.25H5.687c-.563 0-1.021.458-1.021 1.02v6.71c0 .562.458 1.02 1.02 1.02h7.292c.563 0 1.021-.458 1.021-1.02V6.27c0-.562-.458-1.02-1.02-1.02zm0-5.25H1.02C.459 0 0 .458 0 1.02v1.46C0 3.041.458 3.5 1.02 3.5h11.96c.562 0 1.02-.458 1.02-1.02V1.02C14 .459 13.542 0 12.98 0zM1.75 8.75a1.75 1.75 0 1 0 0-3.5 1.75 1.75 0 0 0 0 3.5zm0 5.25a1.75 1.75 0 1 0 0-3.5 1.75 1.75 0 0 0 0 3.5z" />
    </symbol>
    <symbol id="arrow-right" viewBox="0 0 6 10">
        <path
            d="M5.837 4.61L1.292.16A.56.56 0 0 0 .897 0a.56.56 0 0 0-.395.16L.167.487a.54.54 0 0 0 0 .774l3.817 3.737L.163 8.739a.538.538 0 0 0 0 .774l.335.327a.56.56 0 0 0 .395.16.56.56 0 0 0 .395-.16l4.549-4.454A.538.538 0 0 0 6 4.998a.538.538 0 0 0-.163-.388z" />
    </symbol>
    <symbol id="filter" viewBox="0 0 12 12">
        <path
            d="M11.53 0H.47A.469.469 0 0 0 0 .469C0 1.774.56 3.02 1.535 3.888l2.053 1.824c.356.317.56.771.56 1.248v4.57c0 .374.418.598.729.39l2.765-1.843a.469.469 0 0 0 .21-.39V6.96c0-.477.203-.931.56-1.248l2.052-1.824A4.578 4.578 0 0 0 12 .468.469.469 0 0 0 11.531 0zM9.842 3.187L7.79 5.012a2.609 2.609 0 0 0-.875 1.948v2.476l-1.828 1.219V6.96c0-.744-.32-1.454-.875-1.948L2.158 3.187A3.641 3.641 0 0 1 .968.937h10.064a3.64 3.64 0 0 1-1.19 2.25z" />
    </symbol>
    <symbol id="leads" viewBox="0 0 14 14">
        <path
            d="M11.667 2.8a1.4 1.4 0 1 0 0-2.8 1.4 1.4 0 0 0 0 2.8zM2.8 6.767L3.967 5.6l-2.8-2.8L0 3.967v2.1L7.933 14h2.1l1.167-1.167-2.8-2.8L7.233 11.2 2.8 6.767zM7 5.6v.467h.603L6.368 7.302l.33.33 1.235-1.235V7H8.4V5.6H7z" />
        <path
            d="M5.433 8.235l.467-.467.33.33-.467.467-.33-.33zM11.667 2.8a2.333 2.333 0 0 0-2.334 2.333V6.3H14V5.133A2.333 2.333 0 0 0 11.667 2.8zm.233 2.1h-.467v-.467h.467V4.9zm0-.933h-.467V3.5h.467v.467z" />
    </symbol>
    <symbol id="cube" viewBox="0 0 18 20">
        <path
            d="M17.442 5a.909.909 0 0 0-.332-.333L9.236.122a.909.909 0 0 0-.91 0L.455 4.667A.909.909 0 0 0 .122 5l8.66 5 8.66-5z" />
        <path
            d="M8.782 20c.157 0 .314-.04.455-.122l7.872-4.545a.91.91 0 0 0 .455-.788v-9.09A.908.908 0 0 0 17.442 5l-8.66 5v10z" />
        <path
            d="M8.327 19.878a.913.913 0 0 0 .455.122V10L.122 5A.908.908 0 0 0 0 5.455v9.09a.91.91 0 0 0 .455.788l7.872 4.545z" />
    </symbol>
    <symbol id="arrow-l" viewBox="0 0 30 15">
        <path
            d="M29.656 6.436v-.001L23.531.341a1.172 1.172 0 0 0-1.654 1.661l4.112 4.092H1.172a1.172 1.172 0 1 0 0 2.343H25.99l-4.111 4.092a1.172 1.172 0 0 0 1.653 1.661l6.123-6.094h.001a1.173 1.173 0 0 0 0-1.66z" />
    </symbol>
    <symbol id="marketing" viewBox="0 0 15 14">
        <path
            d="M11.826 8.009A14.878 14.878 0 0 0 5.628 9.63l-2.41 1.391a1.331 1.331 0 0 1-1.816-.487L.178 8.414a1.332 1.332 0 0 1 .487-1.817L2.66 5.445a.242.242 0 0 1 .33.088L4.56 8.25a.24.24 0 0 0 .336.085A.248.248 0 0 0 4.973 8l-1.58-2.737a.241.241 0 0 1 .072-.319A14.875 14.875 0 0 0 7.577.65 1.012 1.012 0 0 1 9.31.683l3.353 5.809a1.011 1.011 0 0 1-.836 1.517zm.43-4.046a1.512 1.512 0 0 0-.965-1.667.242.242 0 0 0-.291.349l.808 1.4a.242.242 0 0 0 .448-.082zm-5.579 8.552l-1.147-1.99a.242.242 0 0 0-.33-.09l-1.474.852a.242.242 0 0 0-.09.33l1.15 1.99a.785.785 0 0 0 .682.393c.261 0 .361-.088.921-.412a.786.786 0 0 0 .288-1.073zm7.344-10.39a.242.242 0 1 0-.242-.418l-.625.361c-.214.124-.125.451.12.451.087 0 .07-.002.747-.393zM11.798.874l.153-.569a.242.242 0 1 0-.467-.125l-.153.57a.242.242 0 0 0 .467.124zm2.694 3.833a.242.242 0 0 0-.17-.296l-.57-.152a.242.242 0 0 0-.125.467c.623.167.588.16.632.16a.242.242 0 0 0 .233-.179z" />
    </symbol>
    <symbol id="msg" viewBox="0 0 12 10">
        <path
            d="M8.067 0H1.32C.592 0 0 .579 0 1.29v5.783c0 .274.317.428.54.272l1.88-1.311a.934.934 0 0 1 .536-.168H7.09c.727 0 1.319-.579 1.319-1.29V.334A.338.338 0 0 0 8.067 0zm-1.66 4.05h-3.95a.338.338 0 0 1-.341-.335c0-.185.153-.334.342-.334h3.949c.189 0 .342.15.342.334a.338.338 0 0 1-.342.334zm0-1.56h-3.95a.338.338 0 0 1-.341-.335c0-.184.153-.334.342-.334h3.949c.189 0 .342.15.342.334a.338.338 0 0 1-.342.334z" />
        <path
            d="M11.667 3.883v5.782c0 .272-.315.43-.54.272l-1.88-1.31a.934.934 0 0 0-.537-.169H4.577c-.727 0-1.32-.579-1.32-1.29v-.634H7.09c1.104 0 2.003-.878 2.003-1.959V2.592h1.254c.728 0 1.32.58 1.32 1.29z" />
    </symbol>
    <symbol id="notification" viewBox="0 0 13 16">
        <path
            d="M12.732 12.733c-.049-.03-.412-.279-.776-1.029-.668-1.377-.809-3.318-.809-4.703v-.018c-.007-1.831-1.133-3.41-2.744-4.118V1.782C8.403.8 7.583 0 6.576 0h-.152C5.417 0 4.597.8 4.597 1.782v1.083c-1.616.71-2.744 2.297-2.744 4.136 0 1.385-.14 3.326-.809 4.703-.364.75-.727.998-.776 1.029a.452.452 0 0 0-.257.518.487.487 0 0 0 .483.367h3.528C4.042 14.934 5.145 16 6.5 16c1.355 0 2.458-1.066 2.478-2.382h3.528c.227 0 .435-.15.483-.367a.452.452 0 0 0-.257-.518zM5.56 1.783c0-.466.388-.844.864-.844h.152c.476 0 .864.378.864.843v.779a4.762 4.762 0 0 0-1.88 0v-.779zM6.5 15.06c-.824 0-1.496-.644-1.515-1.443h3.03c-.02.799-.691 1.443-1.515 1.443zm1.938-2.383H1.591a4.89 4.89 0 0 0 .252-.43c.645-1.24.972-3.005.972-5.247 0-1.982 1.653-3.594 3.685-3.594 2.031 0 3.684 1.612 3.684 3.595v.018c.002 2.233.33 3.992.973 5.227.084.162.169.305.252.431H8.44z" />
    </symbol>
    <symbol id="phone" viewBox="0 0 10 10">
        <path
            d="M9.738 7.339L8.339 5.943c-.5-.498-1.348-.299-1.548.35-.15.448-.65.697-1.099.597-.999-.249-2.347-1.545-2.597-2.591-.15-.449.15-.947.6-1.097.649-.2.848-1.046.349-1.545L2.646.262c-.4-.35-1-.35-1.349 0l-.949.947c-.949.996.1 3.638 2.447 5.98C5.143 9.532 7.79 10.63 8.79 9.632l.949-.947c.35-.4.35-.997 0-1.346z" />
    </symbol>
    <symbol id="publisher" viewBox="0 0 12 14">
        <path
            d="M8 7.82h1.6v.82H8v-.82zm-5.6 0h3.2v4.102H2.4V7.82zM0 .41v1.258h12V.41a.405.405 0 0 0-.4-.41H.4C.179 0 0 .184 0 .41zm8 10.692h1.6v.82H8v-.82zM2.4 4.54h7.2v.82H2.4v-.82z" />
        <path
            d="M0 13.59c0 .226.179.41.4.41h11.2c.221 0 .4-.184.4-.41V2.488H0V13.59zm10.4-1.258c0 .227-.179.41-.4.41H7.6a.405.405 0 0 1-.4-.41v-1.64c0-.227.179-.41.4-.41H10c.221 0 .4.183.4.41v1.64zm0-3.281c0 .226-.179.41-.4.41H7.6a.405.405 0 0 1-.4-.41V7.41c0-.227.179-.411.4-.411H10c.221 0 .4.184.4.41v1.64zM1.6 4.129c0-.227.179-.41.4-.41h8c.221 0 .4.183.4.41v1.64c0 .227-.179.41-.4.41H2a.405.405 0 0 1-.4-.41V4.13zm0 3.281c0-.226.179-.41.4-.41h4c.221 0 .4.184.4.41v4.922c0 .227-.179.41-.4.41H2a.405.405 0 0 1-.4-.41V7.41z" />
    </symbol>
    <symbol id="reports" viewBox="0 0 11 14">
        <path d="M7.333 0v3.5H11L7.333 0z" />
        <path
            d="M7.333 4.375c-.505 0-.916-.393-.916-.875V0h-5.5C.412 0 0 .393 0 .875v12.25c0 .483.412.875.917.875h9.166c.506 0 .917-.392.917-.875v-8.75H7.333zM3.667 12.25H1.833V9.625h1.834v2.625zm2.75 0H4.583V7.875h1.834v4.375zm2.75 0H7.333V6.125h1.834v6.125z" />
    </symbol>

    <symbol id="search" viewBox="0 0 14 14">
        <path
            d="M6.165 0A6.172 6.172 0 0 0 0 6.165c0 3.4 2.766 6.166 6.165 6.166 3.4 0 6.166-2.766 6.166-6.166A6.173 6.173 0 0 0 6.165 0zm0 11.192a5.033 5.033 0 0 1-5.027-5.027 5.033 5.033 0 0 1 5.027-5.027 5.033 5.033 0 0 1 5.027 5.027 5.033 5.033 0 0 1-5.027 5.027z" />
        <path
            d="M13.833 13.028L10.57 9.766a.569.569 0 1 0-.804.804l3.262 3.263a.567.567 0 0 0 .805 0 .569.569 0 0 0 0-.805z" />
    </symbol>
    <symbol id="settings" viewBox="0 0 14 14">
        <path
            d="M13.67 5.406l-1.075-.234a5.863 5.863 0 0 0-.347-.835l.596-.927a.418.418 0 0 0-.056-.522l-1.676-1.676a.418.418 0 0 0-.522-.056l-.927.596a5.854 5.854 0 0 0-.835-.347L8.594.33A.418.418 0 0 0 8.185 0h-2.37a.418.418 0 0 0-.41.33l-.233 1.075c-.286.094-.566.21-.835.347l-.927-.596a.418.418 0 0 0-.522.056L1.212 2.888a.418.418 0 0 0-.056.522l.596.927c-.137.27-.253.549-.347.835L.33 5.406a.418.418 0 0 0-.33.409v2.37a.42.42 0 0 0 .33.41l1.075.233c.094.286.21.566.347.835l-.596.927a.418.418 0 0 0 .056.522l1.676 1.676a.42.42 0 0 0 .522.056l.927-.596c.27.137.549.253.835.347l.234 1.076a.418.418 0 0 0 .409.329h2.37a.418.418 0 0 0 .41-.33l.233-1.075c.286-.094.566-.21.835-.347l.927.596a.418.418 0 0 0 .522-.056l1.676-1.676a.418.418 0 0 0 .056-.522l-.596-.927c.137-.27.253-.549.347-.835l1.076-.234A.418.418 0 0 0 14 8.185v-2.37a.418.418 0 0 0-.33-.41zM9.51 7A2.513 2.513 0 0 1 7 9.51 2.513 2.513 0 0 1 4.49 7 2.513 2.513 0 0 1 7 4.49 2.513 2.513 0 0 1 9.51 7z" />
    </symbol>
    <symbol id="sort" viewBox="0 0 10 12">
        <path
            d="M4.837 1.897L2.893.147a.6.6 0 0 0-.786 0L.163 1.897a.465.465 0 0 0 0 .707.6.6 0 0 0 .785 0l.996-.897V11.5c0 .276.25.5.556.5.307 0 .556-.224.556-.5V1.707l.996.897c.108.097.25.146.393.146a.586.586 0 0 0 .392-.146.465.465 0 0 0 0-.707zm5 7.499a.6.6 0 0 0-.785 0l-.996.897V.5c0-.276-.25-.5-.556-.5-.307 0-.555.224-.555.5v9.793l-.997-.896a.6.6 0 0 0-.785 0 .465.465 0 0 0 0 .707l1.944 1.75A.59.59 0 0 0 7.5 12a.586.586 0 0 0 .393-.146l1.944-1.75a.465.465 0 0 0 0-.707z" />
    </symbol>
    <symbol id="linkedin" viewBox="0 0 20 20">
        <path
            d="M19.995 20H20v-7.336c0-3.588-.773-6.352-4.967-6.352-2.017 0-3.37 1.106-3.923 2.156h-.058V6.647H7.074v13.352h4.142v-6.611c0-1.741.33-3.425 2.486-3.425 2.124 0 2.155 1.987 2.155 3.536V20h4.138zM.33 6.647h4.147V20H.33V6.647zM2.402 0A2.402 2.402 0 0 0 0 2.402c0 1.325 1.076 2.424 2.402 2.424 1.325 0 2.401-1.098 2.401-2.424A2.403 2.403 0 0 0 2.402 0z" />
    </symbol>
    <symbol id="facebook" viewBox="0 0 10 20">
        <path
            d="M8.175 3.32h1.826V.14A23.576 23.576 0 0 0 7.34 0C4.708 0 2.905 1.656 2.905 4.7v2.8H0v3.555h2.905V20h3.562v-8.944h2.787L9.697 7.5H6.466V5.05c0-1.027.277-1.73 1.709-1.73z" />
    </symbol>
    <symbol id="team" viewBox="0 0 16 14">
        <path
            d="M13.69 7.558h-1.237c.126.357.195.74.195 1.142v4.824c0 .167-.028.327-.08.476h2.046c.764 0 1.386-.641 1.386-1.43V9.94c0-1.313-1.036-2.382-2.31-2.382zM3.352 8.7c0-.401.069-.785.195-1.142H2.31C1.036 7.558 0 8.628 0 9.941v2.63C0 13.358.622 14 1.386 14h2.046a1.45 1.45 0 0 1-.08-.476V8.7zm6.062-2.383H6.586c-1.274 0-2.31 1.069-2.31 2.383v4.824a.47.47 0 0 0 .462.476h6.524a.47.47 0 0 0 .462-.476V8.7c0-1.314-1.036-2.383-2.31-2.383zM8 0C6.468 0 5.222 1.285 5.222 2.865c0 1.072.574 2.008 1.42 2.5a2.695 2.695 0 0 0 2.716 0 2.883 2.883 0 0 0 1.42-2.5C10.778 1.285 9.532 0 8 0zM3.122 2.67c-1.145 0-2.077.962-2.077 2.143 0 1.182.932 2.143 2.077 2.143.291 0 .568-.062.82-.173a2.117 2.117 0 0 0 1.014-.963c.155-.3.244-.643.244-1.007 0-1.181-.932-2.142-2.078-2.142zm9.756 0c-1.146 0-2.078.962-2.078 2.143 0 .364.089.707.244 1.007.222.428.58.77 1.015.963.251.111.528.173.819.173 1.145 0 2.077-.961 2.077-2.143 0-1.181-.932-2.142-2.077-2.142z" />
    </symbol>
    <symbol id="tranctions" viewBox="0 0 14 14">
        <path
            d="M11.95 2.028h.93a.208.208 0 1 0 0-.416h-1.386C8.742-.672 4.626-.53 2.044 2.047c-.011.01-.035.03-.035.04V1.11a.208.208 0 0 0-.416 0v1.436c-2.255 2.746-2.125 6.839.45 9.408a.067.067 0 0 0 .006.008h-.97a.208.208 0 1 0 0 .415h1.425A7.045 7.045 0 0 0 6.997 14a6.967 6.967 0 0 0 4.933-2.034v.92a.208.208 0 0 0 .417 0v-1.37c2.324-2.745 2.202-6.881-.392-9.47-.004-.003 0 .016-.004-.018zm.112 9.207h-1.367a.208.208 0 1 0 0 .415h.988a.035.035 0 0 0-.02.01c-2.44 2.436-6.324 2.554-8.926.365v-1.32a.208.208 0 0 0-.416 0v.937c-2.428-2.43-2.54-6.291-.368-8.887h1.312a.208.208 0 1 0 0-.416h-.923a6.595 6.595 0 0 1 8.86-.401v1.353a.208.208 0 0 0 .416 0v-.977c.035.012.03.029.043.04a6.586 6.586 0 0 1 .401 8.881z" />
        <path
            d="M7.004 3.029a3.97 3.97 0 1 0-1.518 7.643 3.986 3.986 0 0 0 4.832-1.466 3.966 3.966 0 0 0-.497-5.015A3.977 3.977 0 0 0 7.004 3.03zm.696 2.98h.51a.208.208 0 1 1 0 .415H7.7a1.26 1.26 0 0 1-1.247 1.038h-.18l1.38 1.302a.208.208 0 1 1-.286.303l-1.761-1.66a.208.208 0 0 1 .143-.36h.704a.86.86 0 0 0 .822-.623H5.75a.208.208 0 1 1 0-.416h1.526a.85.85 0 0 0-.822-.657H5.75a.208.208 0 1 1 0-.416h2.46a.208.208 0 1 1 0 .416h-.82c.163.185.27.413.31.657z" />
    </symbol>
    <symbol id="video" viewBox="0 0 15 10">
        <path
            d="M13.858.289a.556.556 0 0 0-.197-.04.47.47 0 0 0-.356.15l-3.186 3.14V2.25c0-.62-.223-1.15-.668-1.59A2.206 2.206 0 0 0 7.842 0H2.277a2.21 2.21 0 0 0-1.61.66C.224 1.1 0 1.63 0 2.25v5.5c0 .62.223 1.15.668 1.59.445.44.982.66 1.609.66h5.565c.627 0 1.164-.22 1.609-.66.445-.44.668-.97.668-1.59V6.453l3.186 3.149a.473.473 0 0 0 .356.148.552.552 0 0 0 .197-.039.467.467 0 0 0 .309-.46V.75a.467.467 0 0 0-.309-.461z" />
    </symbol>
    <symbol id="view" viewBox="0 0 19 10">
        <path
            d="M18.197 4.63c-.164-.19-4.1-4.63-9.03-4.63S.3 4.44.137 4.63a.57.57 0 0 0 0 .74C.3 5.56 4.237 10 9.167 10s8.866-4.44 9.03-4.63a.57.57 0 0 0 0-.74zm-9.03 4.259c-2.073 0-3.76-1.745-3.76-3.889 0-2.144 1.687-3.889 3.76-3.889 2.073 0 3.76 1.745 3.76 3.889 0 2.144-1.687 3.889-3.76 3.889z" />
        <path
            d="M9.704 3.889c0-.559.268-1.05.676-1.353a2.58 2.58 0 0 0-1.213-.314C7.686 2.222 6.48 3.468 6.48 5s1.205 2.778 2.686 2.778c1.325 0 2.423-1.001 2.64-2.31-1.082.36-2.103-.486-2.103-1.579z" />
    </symbol>
    <symbol id="wp" viewBox="0 0 10 10">
        <path
            d="M5.001 0H5a5.004 5.004 0 0 0-5 5c0 1.094.352 2.107.952 2.93L.329 9.789l1.922-.614A4.955 4.955 0 0 0 5 10a5.005 5.005 0 0 0 5-5c0-2.757-2.242-5-4.999-5zm2.91 7.06c-.121.341-.6.624-.982.706-.26.056-.602.1-1.75-.376-1.47-.609-2.417-2.102-2.49-2.199-.07-.097-.594-.79-.594-1.508 0-.717.364-1.067.511-1.217.12-.123.32-.18.512-.18.061 0 .117.004.167.006.147.007.22.016.317.247.121.291.415 1.008.45 1.082.036.074.071.174.021.27-.047.1-.088.145-.162.23-.074.085-.143.15-.217.241-.068.08-.144.165-.059.312.085.143.379.623.811 1.008.558.497 1.01.655 1.173.723.12.05.264.038.352-.056.112-.12.25-.32.39-.517.1-.141.227-.159.36-.109.135.047.849.4.996.473.147.074.244.109.28.17.034.063.034.353-.086.695z" />
    </symbol>
    <symbol id="upload" viewBox="0 0 11 14">
        <path d="M3.143 10.443h4.714v-4.82H11L5.5 0 0 5.623h3.143v4.82zM11 12.393H0V14h11v-1.607z" />
    </symbol>
    <symbol id="tick-icon" viewBox="0 0 8 8">
        <path d="M3.49 8L0 5.071.992 3.7l2.144 1.799L6.673 0 8 .99 3.49 8z" />
    </symbol>
    <symbol id="plus" viewBox="0 0 14 14">
        <path fill="#fff"
            d="M12.75 5.75H8.5a.25.25 0 0 1-.25-.25V1.25a1.25 1.25 0 0 0-2.5 0V5.5a.25.25 0 0 1-.25.25H1.25a1.25 1.25 0 0 0 0 2.5H5.5a.25.25 0 0 1 .25.25v4.25a1.25 1.25 0 0 0 2.5 0V8.5a.25.25 0 0 1 .25-.25h4.25a1.25 1.25 0 0 0 0-2.5z" />
    </symbol>

</svg>