<svg xmlns="http://www.w3.org/2000/svg" width="140" height="20" fill="none" viewBox="0 0 140 20"><path fill="url(#a)" d="M.379 15.588l-.379.72h3.174l.126-.24 2.579-4.782L4.292 8.37.379 15.588zm13.02 0L8.35 6.265l-1.045-1.92-.109-.259h-.613l-.126.259-1.028 1.92-.126.24L6.889 9.44l.036.074 1.172 2.16 2.38 4.394.127.24h3.174l-.379-.72zm8.134-11.465v6.683c0 1.57-1.226 2.88-2.723 2.917h-.217c-1.496-.037-2.723-1.366-2.723-2.917V4.123h-2.524v7.606c0 .997.342 1.92.973 2.622.253.277.505.517.794.738a5.827 5.827 0 0 0 3.589 1.219 5.866 5.866 0 0 0 4.364-1.939c.65-.701.992-1.643.992-2.621V4.123h-2.525zm9.978 12.185V8.517h-2.524v7.79h2.524zM24.983 4.123v2.585h10.73V4.123h-10.73zm16.373.037c-3.282 0-5.933 2.732-5.933 6.074 0 3.36 2.65 6.074 5.933 6.074 3.264 0 5.933-2.714 5.933-6.074 0-3.342-2.669-6.074-5.933-6.074zm3.444 6.074c0 1.957-1.55 3.544-3.444 3.544-1.912 0-3.462-1.587-3.462-3.544 0-1.939 1.55-3.526 3.462-3.526 1.894 0 3.444 1.587 3.444 3.526zm3.405 6.074h2.525V12.19l-2.525-2.585v6.702zM58.376 4.03l-4.779 4.892-2.362-2.418-2.417-2.474h-.613v3.027l2.525 2.585 1.172 1.2 1.695 1.736.343-.333.45-.48.145-.148.523-.517 1.334-1.384v6.59h2.525V4.032h-.54zm1.264 11.557l-.379.72h3.174l.127-.24 2.578-4.782-1.587-2.917-3.913 7.219zm13.02 0l-5.05-9.323-1.045-1.92-.108-.259h-.613l-.127.259-1.028 1.92-.126.24L66.15 9.44l.036.074 1.172 2.16 2.38 4.394.127.24h3.174l-.379-.72zm3.693.72v-7.79h-2.525v7.79h2.525zM69.825 4.123v2.585h10.73V4.123h-10.73z"/><path fill="url(#b)" d="M102.279 15.588l-.379.72h3.174l.126-.24 2.579-4.782-1.587-2.917-3.913 7.219zm13.02 0l-5.049-9.324-1.046-1.92-.108-.258h-.614l-.126.258-1.028 1.92-.126.24 1.587 2.936.036.074 1.172 2.16 2.381 4.393.126.24h3.174l-.379-.72zm5.067-1.865h-3.119l-.145.203-.974 1.366-.09.13v.886h10.73v-2.585h-6.402zm-1.839-1.81h3.138l3.859-5.409 1.154-1.606.541-.775h-11.181v2.584h6.204l-3.715 5.207zm18.353-7.827l-.144.203-2.669 3.73-2.669-3.73-.144-.203h-3.12l.541.775 3.913 5.465.108.166h.018v.019l.09.129v5.668h2.525V10.62l.09-.11v-.019h.018l.109-.166 3.913-5.465.541-.775h-3.12z"/><path fill="url(#c)" d="M83.44 3.156C84.054 1.27 85.777 0 87.717 0h16.287l-.475 1.46c-.614 1.884-2.337 3.155-4.277 3.155H82.965l.475-1.46z"/><path fill="url(#d)" d="M80.434 18.54c.614-1.884 2.337-3.155 4.278-3.155h16.287l-.476 1.46C99.91 18.728 98.187 20 96.246 20H79.96l.475-1.46z"/><path fill="url(#e)" d="M81.664 11.34c.446-2.127 2.283-3.648 4.409-3.648h8.914l-.202.967c-.446 2.128-2.283 3.649-4.409 3.649h-8.914l.202-.967z"/><defs><linearGradient id="a" x1="40.13" x2="40.13" y1="1.69" y2="20" gradientUnits="userSpaceOnUse"><stop stop-color="#5E3EC5"/><stop offset="1" stop-color="#6990EB"/></linearGradient><linearGradient id="b" x1="121.21" x2="121.21" y1="1.69" y2="20" gradientUnits="userSpaceOnUse"><stop stop-color="#5E3EC5"/><stop offset="1" stop-color="#6990EB"/></linearGradient><linearGradient id="c" x1="83.49" x2="104" y1="2.31" y2="2.31" gradientUnits="userSpaceOnUse"><stop stop-color="#1FA2FF"/><stop offset=".49" stop-color="#12D8FA"/><stop offset="1" stop-color="#A6FFCB"/></linearGradient><linearGradient id="d" x1="80.49" x2="101" y1="17.69" y2="17.69" gradientUnits="userSpaceOnUse"><stop stop-color="#1FA2FF"/><stop offset=".49" stop-color="#12D8FA"/><stop offset="1" stop-color="#A6FFCB"/></linearGradient><linearGradient id="e" x1="81.8" x2="94.99" y1="10" y2="10" gradientUnits="userSpaceOnUse"><stop stop-color="#1FA2FF"/><stop offset=".49" stop-color="#12D8FA"/><stop offset="1" stop-color="#A6FFCB"/></linearGradient></defs></svg>